<?xml version="1.0" encoding="UTF-8" standalone="no"?>
<svg
   xmlns:dc="http://purl.org/dc/elements/1.1/"
   xmlns:cc="http://creativecommons.org/ns#"
   xmlns:rdf="http://www.w3.org/1999/02/22-rdf-syntax-ns#"
   xmlns:svg="http://www.w3.org/2000/svg"
   xmlns="http://www.w3.org/2000/svg"
   viewBox="0 0 1055.92 399.05334"
   height="399.05334"
   width="1055.92"
   xml:space="preserve"
   id="svg2"
   version="1.1"><metadata
     id="metadata8"><rdf:RDF><cc:Work
         rdf:about=""><dc:format>image/svg+xml</dc:format><dc:type
           rdf:resource="http://purl.org/dc/dcmitype/StillImage" /></cc:Work></rdf:RDF></metadata><defs
     id="defs6" /><g
     transform="matrix(1.3333333,0,0,-1.3333333,0,399.05333)"
     id="g10"><g
       transform="scale(0.1)"
       id="g12"><path
         id="path14"
         style="fill:#ffffff;fill-opacity:1;fill-rule:nonzero;stroke:none"
         d="m 1240.04,380.602 c -474.708,0 -859.435,384.738 -859.435,859.468 0,474.7 384.727,859.45 859.435,859.45 474.64,0 859.39,-384.75 859.39,-859.45 0,-474.73 -384.75,-859.468 -859.39,-859.468 z m 0,2099.478 C 555.195,2480.08 0,1924.93 0,1240.07 0,555.18 555.195,0 1240.04,0 c 684.8,0 1239.97,555.18 1239.97,1240.07 0,684.86 -555.17,1240.01 -1239.97,1240.01" /><path
         id="path16"
         style="fill:#ffffff;fill-opacity:1;fill-rule:nonzero;stroke:none"
         d="m 602.402,2677.36 c -35.847,-133.77 -173.3,-213.13 -307.007,-177.29 -133.754,35.85 -213.1255,173.28 -177.27,307.07 35.805,133.65 173.277,213.1 306.988,177.16 133.774,-35.74 213.145,-173.21 177.289,-306.94" /><path
         id="path18"
         style="fill:#ffffff;fill-opacity:1;fill-rule:nonzero;stroke:none"
         d="m 3078.91,1662.31 c 49.68,-57.45 144.4,-107.14 246.88,-107.14 114.9,0 177.01,51.24 177.01,124.22 0,82.3 -91.61,108.69 -192.54,133.54 -127.32,29.5 -271.72,63.66 -271.72,218.93 0,116.46 100.92,215.83 279.49,215.83 127.32,0 217.38,-48.13 277.94,-108.69 l -54.35,-80.74 c -45.03,54.35 -127.32,94.72 -223.59,94.72 -102.48,0 -166.15,-46.59 -166.15,-113.35 0,-72.98 85.41,-96.27 183.23,-119.56 130.43,-29.51 281.04,-66.77 281.04,-232.91 0,-125.78 -100.93,-226.7 -295.02,-226.7 -122.66,0 -226.7,37.26 -302.78,118 l 60.56,83.85" /><path
         id="path20"
         style="fill:#ffffff;fill-opacity:1;fill-rule:nonzero;stroke:none"
         d="m 3849.04,1901.43 h 492.22 c -1.55,111.8 -76.08,250 -246.88,250 -159.94,0 -239.13,-135.09 -245.34,-250 z m 246.89,346.26 c 226.7,0 360.23,-177.01 360.23,-402.16 v -29.5 h -607.12 c 9.32,-141.3 108.69,-259.3 270.18,-259.3 85.4,0 172.35,34.16 231.36,94.71 l 55.89,-76.08 c -74.53,-74.53 -175.45,-114.9 -298.12,-114.9 -222.04,0 -381.97,159.93 -381.97,394.39 0,217.38 155.27,392.84 369.55,392.84" /><path
         id="path22"
         style="fill:#ffffff;fill-opacity:1;fill-rule:nonzero;stroke:none"
         d="m 4571.03,2514.76 h 116.45 V 1479.09 h -116.45 v 1035.67" /><path
         id="path24"
         style="fill:#ffffff;fill-opacity:1;fill-rule:nonzero;stroke:none"
         d="m 4912.61,1901.43 h 492.21 c -1.55,111.8 -76.08,250 -246.88,250 -159.93,0 -239.12,-135.09 -245.33,-250 z m 246.88,346.26 c 226.7,0 360.24,-177.01 360.24,-402.16 v -29.5 h -607.12 c 9.31,-141.3 108.69,-259.3 270.17,-259.3 85.4,0 172.36,34.16 231.36,94.71 l 55.9,-76.08 c -74.53,-74.53 -175.46,-114.9 -298.13,-114.9 -222.04,0 -381.97,159.93 -381.97,394.39 0,217.38 155.27,392.84 369.55,392.84" /><path
         id="path26"
         style="fill:#ffffff;fill-opacity:1;fill-rule:nonzero;stroke:none"
         d="m 6136.13,1969.75 c 0,131.98 -66.76,173.91 -167.69,173.91 -91.61,0 -178.57,-55.9 -222.04,-116.46 v -548.11 h -116.46 v 749.97 h 116.46 v -108.69 c 52.79,62.11 155.27,127.32 267.07,127.32 156.82,0 239.12,-79.19 239.12,-242.22 v -526.38 h -116.46 v 490.66" /><path
         id="path28"
         style="fill:#ffffff;fill-opacity:1;fill-rule:nonzero;stroke:none"
         d="m 6410.94,2229.06 h 116.45 v -749.97 h -116.45 z m -20.19,198.75 c 0,43.48 35.71,79.19 77.64,79.19 43.48,0 79.19,-35.71 79.19,-79.19 0,-43.47 -35.71,-77.63 -79.19,-77.63 -41.93,0 -77.64,34.16 -77.64,77.63" /><path
         id="path30"
         style="fill:#ffffff;fill-opacity:1;fill-rule:nonzero;stroke:none"
         d="m 6791.34,1635.92 v 490.66 h -124.22 v 102.48 h 124.22 v 204.96 h 116.45 v -204.96 h 152.17 v -102.48 h -152.17 v -465.82 c 0,-55.9 24.85,-96.27 76.09,-96.27 32.6,0 63.66,13.97 79.19,31.05 l 34.16,-86.95 c -29.51,-27.95 -71.43,-48.13 -139.75,-48.13 -110.24,0 -166.14,63.66 -166.14,175.46" /><path
         id="path32"
         style="fill:#ffffff;fill-opacity:1;fill-rule:nonzero;stroke:none"
         d="m 7319.24,1278.79 c 51.24,0 85.4,17.08 111.8,79.19 l 49.68,113.35 -313.65,757.73 h 125.77 l 249.99,-614.88 248.44,614.88 h 127.32 l -375.76,-902.14 c -45.03,-108.69 -121.11,-150.61 -220.49,-152.17 -24.84,0 -63.66,4.66 -85.4,10.87 l 18.64,105.59 c 17.08,-7.76 45.03,-12.42 63.66,-12.42" /><path
         id="path34"
         style="fill:#ffffff;fill-opacity:1;fill-rule:nonzero;stroke:none"
         d="m 3016.35,786.641 c 0,23.48 19.29,42.781 41.95,42.781 23.49,0 42.78,-19.301 42.78,-42.781 0,-23.5 -19.29,-41.95 -42.78,-41.95 -22.66,0 -41.95,18.45 -41.95,41.95 z m 73.83,-544.469 c 0,-79.703 -42.79,-125 -119.14,-125 -17.61,0 -31.87,1.68 -45.29,5.867 l 8.39,52.859 c 8.38,-3.359 20.13,-4.199 30.2,-4.199 36.91,0 62.92,19.289 62.92,70.473 v 444.629 h 62.92 V 242.172" /><path
         id="path36"
         style="fill:#ffffff;fill-opacity:1;fill-rule:nonzero;stroke:none"
         d="m 3542.37,484.621 c 0,82.211 -47.82,156.039 -134.23,156.039 -86.41,0 -135.06,-73.828 -135.06,-156.039 0,-83.051 48.65,-156.883 135.06,-156.883 86.41,0 134.23,73.832 134.23,156.883 z m -334.73,0 c 0,117.449 77.18,212.25 200.5,212.25 123.32,0 200.51,-94.801 200.51,-212.25 0,-117.449 -77.19,-213.09 -200.51,-213.09 -123.32,0 -200.5,95.641 -200.5,213.09" /><path
         id="path38"
         style="fill:#ffffff;fill-opacity:1;fill-rule:nonzero;stroke:none"
         d="m 3909.85,327.738 c 82.22,0 130.88,66.274 130.88,156.043 0,89.758 -48.66,156.879 -130.88,156.879 -49.49,0 -98.99,-30.199 -120.8,-65.441 V 391.5 c 21.81,-35.23 71.31,-63.762 120.8,-63.762 z M 3726.13,841.16 h 62.92 V 625.559 c 32.72,44.472 81.38,71.312 136.75,71.312 105.7,0 180.37,-83.891 180.37,-213.09 0,-131.711 -74.67,-212.25 -180.37,-212.25 -57.05,0 -106.54,29.367 -136.75,70.469 v -60.398 h -62.92 V 841.16" /><path
         id="path40"
         style="fill:#ffffff;fill-opacity:1;fill-rule:nonzero;stroke:none"
         d="m 4498,509.789 h 265.94 c -0.83,60.402 -41.11,135.063 -133.39,135.063 -86.41,0 -129.19,-72.981 -132.55,-135.063 z m 133.39,187.082 c 122.49,0 194.64,-95.641 194.64,-217.281 V 463.648 H 4498 c 5.04,-76.347 58.73,-140.109 145.97,-140.109 46.15,0 93.12,18.461 125,51.18 l 30.21,-41.11 c -40.27,-40.257 -94.8,-62.078 -161.07,-62.078 -119.98,0 -206.38,86.41 -206.38,213.09 0,117.449 83.89,212.25 199.66,212.25" /><path
         id="path42"
         style="fill:#ffffff;fill-opacity:1;fill-rule:nonzero;stroke:none"
         d="m 4882.26,686.801 h 67.95 L 5085.27,354.59 5219.5,686.801 h 68.79 L 5119.67,281.602 h -68.79 l -168.62,405.199" /><path
         id="path44"
         style="fill:#ffffff;fill-opacity:1;fill-rule:nonzero;stroke:none"
         d="m 5622.23,443.512 c -24.34,33.558 -67.12,50.34 -111.59,50.34 -58.72,0 -99.83,-36.922 -99.83,-88.93 0,-51.172 41.11,-88.09 99.83,-88.09 44.47,0 87.25,16.777 111.59,50.34 z m 0,-115.774 c -33.57,-36.906 -79.7,-56.207 -134.23,-56.207 -68.8,0 -141.79,46.141 -141.79,134.231 0,90.597 72.99,133.386 141.79,133.386 55.36,0 101.5,-17.617 134.23,-55.367 v 72.989 c 0,54.531 -43.63,85.57 -102.36,85.57 -48.65,0 -88.08,-17.621 -124.16,-56.211 l -29.36,43.621 c 43.62,45.309 95.64,67.121 161.91,67.121 85.58,0 156.89,-38.59 156.89,-136.75 V 281.602 h -62.92 v 46.136" /><path
         id="path46"
         style="fill:#ffffff;fill-opacity:1;fill-rule:nonzero;stroke:none"
         d="m 5826.11,841.16 h 62.92 V 281.602 h -62.92 V 841.16" /><path
         id="path48"
         style="fill:#ffffff;fill-opacity:1;fill-rule:nonzero;stroke:none"
         d="m 6303.48,338.648 c -31.04,-35.226 -83.89,-67.117 -144.29,-67.117 -84.74,0 -129.2,41.11 -129.2,129.199 v 286.071 h 62.92 v -266.77 c 0,-71.312 36.07,-92.293 90.61,-92.293 49.49,0 96.47,28.532 119.96,61.242 v 297.821 h 62.92 V 281.602 h -62.92 v 57.046" /><path
         id="path50"
         style="fill:#ffffff;fill-opacity:1;fill-rule:nonzero;stroke:none"
         d="m 6760.73,443.512 c -24.33,33.558 -67.12,50.34 -111.58,50.34 -58.72,0 -99.83,-36.922 -99.83,-88.93 0,-51.172 41.11,-88.09 99.83,-88.09 44.46,0 87.25,16.777 111.58,50.34 z m 0,-115.774 c -33.56,-36.906 -79.69,-56.207 -134.23,-56.207 -68.79,0 -141.77,46.141 -141.77,134.231 0,90.597 72.98,133.386 141.77,133.386 55.37,0 101.51,-17.617 134.23,-55.367 v 72.989 c 0,54.531 -43.62,85.57 -102.35,85.57 -48.65,0 -88.09,-17.621 -124.16,-56.211 l -29.37,43.621 c 43.63,45.309 95.65,67.121 161.92,67.121 85.57,0 156.88,-38.59 156.88,-136.75 V 281.602 h -62.92 v 46.136" /><path
         id="path52"
         style="fill:#ffffff;fill-opacity:1;fill-rule:nonzero;stroke:none"
         d="m 6977.21,366.34 v 265.09 h -67.12 v 55.371 h 67.12 v 110.738 h 62.92 V 686.801 h 82.2 V 631.43 h -82.2 V 379.75 c 0,-30.199 13.41,-52.012 41.1,-52.012 17.62,0 34.4,7.551 42.78,16.782 l 18.46,-46.981 c -15.94,-15.098 -38.59,-26.008 -75.5,-26.008 -59.57,0 -89.76,34.399 -89.76,94.809" /><path
         id="path54"
         style="fill:#ffffff;fill-opacity:1;fill-rule:nonzero;stroke:none"
         d="m 7537.63,484.621 c 0,82.211 -47.82,156.039 -134.23,156.039 -86.41,0 -135.07,-73.828 -135.07,-156.039 0,-83.051 48.66,-156.883 135.07,-156.883 86.41,0 134.23,73.832 134.23,156.883 z m -334.73,0 c 0,117.449 77.18,212.25 200.5,212.25 123.32,0 200.51,-94.801 200.51,-212.25 0,-117.449 -77.19,-213.09 -200.51,-213.09 -123.32,0 -200.5,95.641 -200.5,213.09" /><path
         id="path56"
         style="fill:#ffffff;fill-opacity:1;fill-rule:nonzero;stroke:none"
         d="m 7721.39,686.801 h 62.92 v -65.442 c 32.71,42.789 79.69,73.832 135.07,73.832 V 630.59 c -7.55,1.68 -15.1,2.519 -25.17,2.519 -38.59,0 -91.45,-31.879 -109.9,-64.597 v -286.91 h -62.92 v 405.199" /></g></g></svg>